{"title":"Bending the Rules 2012 DVDRip x264-MiRaGe","uid":7140930,"size":714602383,"categoryP":"video","categoryS":"movies","magnet":"?xt=urn:btih:103915471e385e5ce2aa0b7ed77c6f929e877a82&amp;dn=Bending+the+Rules+2012+DVDRip+x264-MiRaGe&amp;tr=udp%3A%2F%2Ftracker.openbittorrent.com%3A80&amp;tr=udp%3A%2F%2Fopen.demonii.com%3A1337&amp;tr=udp%3A%2F%2Ftracker.coppersurfer.tk%3A6969&amp;tr=udp%3A%2F%2Fexodus.desync.com%3A6969","seeders":0,"leechers":0,"uploader":"HeroMaster","files":-1,"time":1333001420,"description":"Bending the Rules 2012 DVDRip x264-MiRaGe\n\n\nInformation:\n________\n\nIMDB: http://www.imdb.com/title/tt1715320/\nrating: PG-13\nruntime: 83 min\ngenre: Action | Drama\nrelease date: 2012\nplot: A New Orleans cop on trial for corruption teams up with the Assistant District Attorney who wants to put him away to take down a killer.\n\n\nGeneral:\n________\n\nComplete name : bending-miRaGe.mp4\nFormat : MPEG-4\nFormat profile : Base Media / Version 2\nCodec ID : mp42\nFile size : 681 MiB\nDuration : 1h 23mn\nOverall bit rate : 1 140 Kbps\n\n\nVideo\n______\n\nID : 1\nFormat : AVC\nFormat/Info : Advanced Video Codec\nFormat profile : &lt;a class=&quot;__cf_email__&quot; href=&quot;/cdn-cgi/l/email-protection&quot; data-cfemail=&quot;9dd0fcf4f3ddd1aeb3ad&quot;&gt;[email&amp;#160;protected]&lt;/a&gt;&lt;script cf-hash='f9e31' type=&quot;text/javascript&quot;&gt;\n/* &lt;![CDATA[ */!function(){try{var t=&quot;currentScript&quot;in document?document.currentScript:function(){for(var t=document.getElementsByTagName(&quot;script&quot;),e=t.length;e--;)if(t[e].getAttribute(&quot;cf-hash&quot;))return t[e]}();if(t&amp;&amp;t.previousSibling){var e,r,n,i,c=t.previousSibling,a=c.getAttribute(&quot;data-cfemail&quot;);if(a){for(e=&quot;&quot;,r=parseInt(a.substr(0,2),16),n=2;a.length-n;n+=2)i=parseInt(a.substr(n,2),16)^r,e+=String.fromCharCode(i);e=document.createTextNode(e),c.parentNode.replaceChild(e,c)}}}catch(u){}}();/* ]]&gt; */&lt;/script&gt;\nFormat settings, CABAC : Yes\nFormat settings, ReFrames : 4 frames\nFormat settings, GOP : M=3, N=32\nCodec ID : avc1\nCodec ID/Info : Advanced Video Coding\nDuration : 1h 23mn\nBit rate mode : Variable\nBit rate : 974 Kbps\nWidth : 720 pixels\nHeight : 468 pixels\nDisplay aspect ratio : 16:9\nFrame rate mode : Variable\nFrame rate : 23.976 fps\nMinimum frame rate : 19.965 fps\nMaximum frame rate : 29.970 fps\nColor space : YUV\nChroma subsampling : 4:2:0\nBit depth : 8 bits\nScan type : Progressive\nBits/(Pixel*Frame) : 0.121\nStream size : 582 MiB (85%)\nWriting library : x264 core 112\n\n\nAudio\n______\n\nID : 2\nFormat : AAC\nFormat/Info : Advanced Audio Codec\nFormat profile : LC\nCodec ID : 40\nDuration : 1h 23mn\nBit rate mode : Variable\nBit rate : 160 Kbps\nMaximum bit rate : 323 Kbps\nChannel(s) : 2 channels\nChannel positions : Front: L R\nSampling rate : 48.0 KHz\nCompression mode : Lossy\nStream size : 95.6 MiB (14%)\nLanguage : English\n\n\nPoster:\n\n &lt;a href=&quot;\nhttp://i.imgur.com/NDcsN.jpg&quot; rel=&quot;nofollow&quot; target=&quot;_NEW&quot;&gt;\nhttp://i.imgur.com/NDcsN.jpg&lt;/a&gt;\n\n\nScreenshots:\n\n &lt;a href=&quot;\nhttp://i.imgur.com/FFcY2.jpg&quot; rel=&quot;nofollow&quot; target=&quot;_NEW&quot;&gt;\nhttp://i.imgur.com/FFcY2.jpg&lt;/a&gt;\n\n\nENJOY!","torrent":{"xt":"urn:btih:103915471e385e5ce2aa0b7ed77c6f929e877a82","amp;dn":"Bending+the+Rules+2012+DVDRip+x264-MiRaGe","amp;tr":["udp%3A%2F%2Ftracker.openbittorrent.com%3A80","udp%3A%2F%2Fopen.demonii.com%3A1337","udp%3A%2F%2Ftracker.coppersurfer.tk%3A6969","udp%3A%2F%2Fexodus.desync.com%3A6969"],"infoHash":"103915471e385e5ce2aa0b7ed77c6f929e877a82","infoHashBuffer":{"type":"Buffer","data":[16,57,21,71,30,56,94,92,226,170,11,126,215,124,111,146,158,135,122,130]},"announce":[],"urlList":[]}}